<svg width="25" height="25" viewBox="0 0 25 25" fill="none" xmlns="http://www.w3.org/2000/svg">
<circle cx="12.5" cy="12.5" r="12.5" fill="#AE7D00"/>
<path d="M12.2283 17.4527C11.3693 17.4502 10.5304 17.1839 9.81757 16.6876C9.10474 16.1912 8.55003 15.4871 8.2236 14.6642C7.89717 13.8413 7.81367 12.9367 7.98367 12.0647C8.15367 11.1926 8.56954 10.3924 9.17866 9.76519C9.78779 9.13796 10.5628 8.71191 11.4058 8.54091C12.2487 8.36991 13.1216 8.46164 13.9142 8.8045C14.7068 9.14737 15.3835 9.72597 15.8585 10.4671C16.3336 11.2083 16.5858 12.0787 16.5833 12.9683C16.5794 14.1609 16.1185 15.3032 15.3019 16.1441C14.4853 16.9849 13.3798 17.4556 12.2283 17.4527ZM11.7591 11.6996C11.7591 12.1104 11.7591 12.5216 11.7591 12.9324C11.7557 13.0134 11.7716 13.0941 11.8053 13.1673C11.8391 13.2405 11.8897 13.304 11.9527 13.3522C12.5938 13.8525 13.2361 14.3515 13.8798 14.8491C13.9369 14.8966 14.0041 14.9292 14.0759 14.944C14.1477 14.9589 14.2219 14.9556 14.2922 14.9345C14.4842 14.8781 14.6076 14.7466 14.6435 14.5469C14.6829 14.3334 14.6021 14.1615 14.4342 14.0316C13.9078 13.6233 13.3838 13.2121 12.8548 12.8066C12.8111 12.7788 12.7757 12.7392 12.7521 12.6921C12.7286 12.645 12.7179 12.5921 12.7211 12.5392C12.7274 11.8581 12.725 11.1765 12.7235 10.4975C12.7235 10.181 12.5196 9.95561 12.2405 9.95643C11.9614 9.95724 11.7607 10.1806 11.7595 10.4987C11.7579 10.9005 11.7591 11.3007 11.7591 11.6996Z" fill="white"/>
<path d="M6.95903 10.6468C7.02211 10.588 7.08322 10.5268 7.14866 10.4708C7.24366 10.3876 7.36591 10.3455 7.49009 10.3531C7.61427 10.3607 7.73087 10.4174 7.81575 10.5116C7.98449 10.6974 7.99356 11.0102 7.81023 11.1903C7.37655 11.6162 6.93774 12.0376 6.48868 12.4455C6.23911 12.6722 5.89729 12.586 5.73959 12.2744C5.51249 11.8281 5.29092 11.3794 5.06935 10.9298C4.93372 10.6529 5.00154 10.3785 5.23336 10.2356C5.46518 10.0927 5.73131 10.1658 5.90675 10.4328C5.91897 10.4488 5.93214 10.4639 5.94618 10.4782C5.99822 10.3536 6.04356 10.2364 6.0956 10.1221C7.08558 7.9579 8.70756 6.60345 10.971 6.13387C14.5414 5.39233 18.0653 7.80805 18.842 11.4868C19.0342 12.3918 19.0512 13.3273 18.8921 14.2391C18.7329 15.151 18.4006 16.0211 17.9146 16.7991C17.4285 17.5771 16.7983 18.2475 16.0604 18.7715C15.3225 19.2955 14.4915 19.6628 13.6157 19.8519C10.4707 20.5416 7.23264 18.7662 6.01517 15.6873C5.8969 15.3835 6.01202 15.0842 6.29115 14.985C6.53993 14.896 6.7895 15.016 6.90186 15.2908C7.10471 15.8012 7.37528 16.2797 7.70575 16.7126C8.7257 18.025 10.0437 18.7821 11.6617 18.9585C14.5169 19.2713 17.1813 17.3309 17.8685 14.4488C18.056 13.6653 18.089 12.8508 17.9657 12.0538C17.8424 11.2567 17.5653 10.4936 17.1509 9.81003C16.7365 9.12642 16.1933 8.53632 15.5538 8.07497C14.9143 7.61363 14.1916 7.29051 13.4288 7.1249C10.7952 6.54547 8.07714 7.97465 6.97637 10.5178C6.9606 10.5545 6.94878 10.5929 6.93695 10.6309L6.95903 10.6468Z" fill="white"/>
</svg>
