<svg width="25" height="25" viewBox="0 0 25 25" fill="none" xmlns="http://www.w3.org/2000/svg">
<circle cx="12.5" cy="12.5" r="12.5" fill="#AE7D00"/>
<path d="M9.5058 11.9922L6.2958 15.1722C6.20207 15.2652 6.12768 15.3758 6.07691 15.4976C6.02614 15.6195 6 15.7502 6 15.8822C6 16.0142 6.02614 16.1449 6.07691 16.2668C6.12768 16.3886 6.20207 16.4992 6.2958 16.5922L8.4158 18.7122C8.50876 18.8059 8.61936 18.8803 8.74122 18.9311C8.86308 18.9818 8.99379 19.008 9.1258 19.008C9.25781 19.008 9.38852 18.9818 9.51038 18.9311C9.63223 18.8803 9.74284 18.8059 9.8358 18.7122L13.0158 15.5022" stroke="white" stroke-linecap="round" stroke-linejoin="round"/>
<path d="M15.5022 13.0158L18.6822 9.8358C18.7759 9.74284 18.8503 9.63223 18.9011 9.51038C18.9518 9.38852 18.978 9.25781 18.978 9.1258C18.978 8.99379 18.9518 8.86308 18.9011 8.74122C18.8503 8.61936 18.7759 8.50876 18.6822 8.4158L16.5922 6.2958C16.4992 6.20207 16.3886 6.12768 16.2668 6.07691C16.1449 6.02614 16.0142 6 15.8822 6C15.7502 6 15.6195 6.02614 15.4976 6.07691C15.3758 6.12768 15.2652 6.20207 15.1722 6.2958L11.9922 9.5058" stroke="white" stroke-linecap="round" stroke-linejoin="round"/>
<path d="M14.5078 10.5078L10.5078 14.5078" stroke="white" stroke-linecap="round" stroke-linejoin="round"/>
</svg>
