<svg width="25" height="25" viewBox="0 0 25 25" fill="none" xmlns="http://www.w3.org/2000/svg">
<circle cx="12.5" cy="12.5" r="12.5" fill="#AE7D00"/>
<path d="M15.2288 20C15.0139 19.9643 14.798 19.9377 14.5836 19.8911C13.4415 19.6416 12.5488 19.0638 11.8988 18.1768C11.8749 18.1361 11.8386 18.1026 11.7943 18.0803C11.75 18.0579 11.6995 18.0477 11.649 18.0509C10.3614 18.0553 9.07396 18.056 7.78671 18.0531C6.98545 18.0531 6.33879 17.6529 6.1009 17.0002C6.03833 16.8274 6.00602 16.6468 6.00517 16.465C5.99943 13.5083 5.99847 10.5514 6.0023 7.59437C6.0023 6.68689 6.75761 6.0041 7.75369 6.00236C9.44189 5.99887 11.1301 6.00236 12.8178 6.00018C12.8877 5.99835 12.9571 6.01046 13.0213 6.03566C13.0855 6.06086 13.1428 6.09855 13.1892 6.14606C14.2423 7.1537 15.2953 8.16003 16.3483 9.16505C16.3959 9.20862 16.4332 9.26056 16.4579 9.31769C16.4825 9.37483 16.4941 9.43595 16.4919 9.4973C16.4919 10.2994 16.4919 11.1011 16.4919 11.9032V12.0412C16.782 12.1335 17.0663 12.2028 17.3344 12.3129C18.7569 12.8995 19.662 13.8906 19.9253 15.2884C20.2182 16.8482 19.6448 18.1515 18.2888 19.15C17.6139 19.6468 16.8284 19.9129 15.963 19.9817C15.9387 19.9859 15.9148 19.992 15.8917 20H15.2288ZM11.4867 17.4691C11.1556 16.6988 11.0889 15.8553 11.2952 15.0498H11.1301C10.3035 15.0498 9.47683 15.0498 8.6502 15.0498C8.41949 15.0498 8.27829 14.9322 8.27972 14.755C8.28116 14.5777 8.41422 14.475 8.6411 14.4671C8.68083 14.4671 8.72104 14.4671 8.76124 14.4671C9.53762 14.4671 10.3145 14.4549 11.0908 14.4737C11.3819 14.4811 11.5944 14.4454 11.669 14.1575C11.6837 14.1187 11.7048 14.0821 11.7318 14.0491C11.8361 13.8954 11.9414 13.7443 12.0668 13.5623H8.75071C8.69561 13.5635 8.64048 13.5619 8.58558 13.5575C8.39699 13.5387 8.28211 13.4334 8.27781 13.2783C8.2735 13.1233 8.38933 13.0031 8.58223 12.9805C8.63203 12.9763 8.68208 12.9751 8.73205 12.977C9.97973 12.977 11.2273 12.977 12.4746 12.977C12.5983 12.9813 12.7194 12.9437 12.8145 12.8716C13.5731 12.323 14.4357 12.0173 15.4088 11.9837C15.5524 11.9785 15.6959 11.9837 15.8357 11.9837V9.70763H15.6596C15.1436 9.70763 14.6276 9.71111 14.1116 9.70763C13.9566 9.7105 13.8018 9.69587 13.6507 9.66408C12.9806 9.50122 12.5838 9.0231 12.5785 8.37732C12.5742 7.83083 12.5785 7.2839 12.5785 6.73697C12.5785 6.68907 12.5737 6.6416 12.5708 6.59153C12.5182 6.58891 12.4837 6.58499 12.4493 6.58499C10.8959 6.58499 9.34281 6.58499 7.79006 6.58499C7.67505 6.5842 7.56044 6.59738 7.44926 6.62418C6.93998 6.75482 6.64225 7.11886 6.64177 7.63444C6.6389 10.5645 6.6389 13.4945 6.64177 16.4245C6.64177 16.6662 6.70352 16.8926 6.87297 17.0881C7.12426 17.3781 7.46314 17.4722 7.8542 17.4709C9.00296 17.4674 10.1484 17.4709 11.2957 17.4709L11.4867 17.4691ZM15.5868 19.4204C17.6565 19.4235 19.3471 17.8859 19.3538 15.9956C19.3605 14.1053 17.6752 12.5725 15.5954 12.5638C13.5157 12.5551 11.8165 14.104 11.8203 15.993C11.8232 16.901 12.2209 17.7711 12.9266 18.4133C13.6323 19.0555 14.5887 19.4175 15.5868 19.4204ZM13.2261 7.03395C13.2261 7.5456 13.2041 8.02721 13.2333 8.50621C13.2553 8.86503 13.5875 9.11367 13.9857 9.11933C14.4256 9.12543 14.866 9.11933 15.3063 9.11933C15.3346 9.11638 15.3626 9.11158 15.3901 9.10496L13.2261 7.03395Z" fill="white"/>
<path d="M10.2188 11.5181C10.7544 11.5181 11.29 11.515 11.8256 11.5181C12.0218 11.5181 12.1606 11.6448 12.1606 11.8033C12.1606 11.9618 12.0252 12.0833 11.8304 12.0955C11.7902 12.0981 11.75 12.0955 11.7102 12.0955H9.48785C9.19731 12.0955 8.90677 12.0955 8.61671 12.0955C8.47311 12.0955 8.36063 12.0402 8.30367 11.9213C8.25341 11.8138 8.2558 11.691 8.36111 11.62C8.45156 11.5598 8.55974 11.5255 8.67175 11.5216C9.18726 11.5116 9.70324 11.5172 10.2188 11.5172V11.5181Z" fill="white"/>
<path d="M15.269 17.2088V17.0164C15.269 16.0549 15.269 15.0934 15.269 14.1319C15.269 13.9098 15.3446 13.7992 15.5165 13.76C15.555 13.7503 15.5952 13.7476 15.6349 13.7521C15.6745 13.7566 15.7128 13.7681 15.7475 13.7861C15.7823 13.804 15.8128 13.8281 15.8373 13.8568C15.8618 13.8855 15.8798 13.9183 15.8903 13.9534C15.9075 14.0197 15.9154 14.0877 15.9138 14.1559C15.9138 15.1139 15.9138 16.0707 15.9138 17.0264V17.2036C15.9616 17.1622 15.9951 17.1383 16.0229 17.1113C16.3982 16.7438 16.7729 16.3762 17.1472 16.0087C17.1645 15.9922 17.1807 15.9748 17.1985 15.9591C17.355 15.8176 17.5426 15.8014 17.6771 15.9155C17.8116 16.0296 17.8145 16.2012 17.6604 16.351C17.1571 16.8465 16.6522 17.34 16.1454 17.8315C16.0468 17.9282 15.9497 18.027 15.8482 18.1215C15.6696 18.2879 15.4873 18.2922 15.3145 18.1246C14.7082 17.5364 14.1041 16.9462 13.5023 16.354C13.353 16.2073 13.3511 16.0322 13.4836 15.9151C13.6162 15.798 13.8187 15.8097 13.9747 15.9586C14.3773 16.3462 14.7765 16.7368 15.1771 17.1257C15.1977 17.1483 15.2164 17.1631 15.269 17.2088Z" fill="white"/>
</svg>
